<svg width="16" height="16" viewBox="0 0 16 16" fill="none" xmlns="http://www.w3.org/2000/svg">
<path d="M2.81498 14.6666C2.40757 14.6666 2.05868 14.5216 1.76831 14.2318C1.47843 13.9414 1.3335 13.5925 1.3335 13.1851V2.81473C1.3335 2.40733 1.47843 2.05844 1.76831 1.76807C2.05868 1.47819 2.40757 1.33325 2.81498 1.33325H13.1853C13.5928 1.33325 13.9416 1.47819 14.232 1.76807C14.5219 2.05844 14.6668 2.40733 14.6668 2.81473V13.1851C14.6668 13.5925 14.5219 13.9414 14.232 14.2318C13.9416 14.5216 13.5928 14.6666 13.1853 14.6666H2.81498ZM6.96313 10.7962C7.06189 10.7962 7.15448 10.7809 7.2409 10.7503C7.32732 10.7192 7.40757 10.6666 7.48164 10.5925L11.6853 6.38881C11.8212 6.253 11.8891 6.08634 11.8891 5.88881C11.8891 5.69128 11.815 5.51844 11.6668 5.37029C11.531 5.23449 11.3582 5.16659 11.1483 5.16659C10.9384 5.16659 10.7656 5.23449 10.6298 5.37029L6.96313 9.03696L5.35201 7.42584C5.21621 7.29004 5.04955 7.22214 4.85201 7.22214C4.65448 7.22214 4.48164 7.29621 4.3335 7.44436C4.19769 7.58017 4.12979 7.753 4.12979 7.96288C4.12979 8.17276 4.19769 8.3456 4.3335 8.4814L6.44461 10.5925C6.51868 10.6666 6.59893 10.7192 6.68535 10.7503C6.77177 10.7809 6.86436 10.7962 6.96313 10.7962Z" fill="#FFB9E7"/>
</svg>
